#!OML:ASF G:\ViconDB\ViconDB\414\test\team2\shane.ASF
:FULLY-SPECIFIED
:DEGREES
126
root 4.2475 16.7731 2.01634 -1.31253 -3.64175 -6.15859
lowerback 10.6148 4.87548 1.04864
upperback 5.55087 6.53552 -0.395038
thorax 0.025747 3.29254 -1.65775
lowerneck -17.363 -8.33818 -8.31733
upperneck 16.7871 -12.6348 15.3595
head 9.77787 -4.90614 4.89554
rclavicle -2.5842e-014 4.77083e-015
rhumerus -40.9268 29.9968 -91.4155
rradius 96.9836
rwrist 34.0702
rhand -51.2552 -23.8664
rfingers 7.12502
rthumb -23.7934 -52.4131
lclavicle -2.5842e-014 4.77083e-015
lhumerus -61.7267 -12.9174 78.7961
lradius 67.2484
lwrist -21.8191
lhand -47.1061 3.7507
lfingers 7.12502
lthumb -19.8093 32.7612
rfemur 27.2964 -4.06552 15.9049
rtibia 48.7544
rfoot 2.71026 -7.96255
rtoes -9.58634
lfemur -28.0221 18.4368 -15.4642
ltibia 39.5691
lfoot -4.91876 -21.2716
ltoes 1.02425
127
root 4.24497 16.6418 2.52041 -1.5453 -2.67533 -5.94497
lowerback 10.6593 4.43452 0.563753
upperback 5.58932 5.90975 -0.369658
thorax -0.0332497 2.96958 -1.30715
lowerneck -17.6488 -8.26155 -8.45716
upperneck 16.5578 -12.4688 15.4751
head 9.74761 -4.82269 4.97642
rclavicle 7.87187e-014 -1.35174e-014
rhumerus -43.9395 29.8398 -92.1624
rradius 94.7068
rwrist 33.6045
rhand -50.7954 -21.5108
rfingers 7.12502
rthumb -23.3524 -50.1143
lclavicle 7.87187e-014 -1.35174e-014
lhumerus -59.4362 -12.0685 79.9372
lradius 67.2906
lwrist -23.5039
lhand -47.5729 4.06345
lfingers 7.12502
lthumb -20.258 33.027
rfemur 25.1076 -5.23963 15.0443
rtibia 54.2777
rfoot 1.26466 -7.14889
rtoes -10.5443
lfemur -26.1633 17.7637 -15.731
ltibia 41.0273
lfoot -13.4202 -19.2767
ltoes -4.65611
128
root 4.24759 16.5242 3.02196 -1.70142 -2.03391 -5.64456
lowerback 10.5142 4.06672 0.0776567
upperback 5.81362 5.38055 -0.46942
thorax 0.230013 2.69882 -1.0664
lowerneck -18.3822 -8.24943 -8.27992
upperneck 16.2745 -12.3911 15.3503
head 9.7527 -4.76422 4.89206
rclavicle -2.20651e-014 4.77083e-015
rhumerus -46.3738 29.7619 -92.687
rradius 92.1743
rwrist 33.9336
rhand -50.1502 -20.8794
rfingers 7.12502
rthumb -22.7333 -49.5601
lclavicle -2.20651e-014 4.77083e-015
lhumerus -56.605 -11.4406 81.1986
lradius 67.484
lwrist -24.4739
lhand -47.6758 4.29773
lfingers 7.12502
lthumb -20.3569 33.2508
rfemur 22.7165 -6.03206 14.1353
rtibia 59.4805
rfoot -0.0545088 -6.56229
rtoes -10.6429
lfemur -24.5305 16.9317 -15.8977
ltibia 42.7344
lfoot -18.2777 -18.785
ltoes -5.35662
129
root 4.25819 16.4241 3.52377 -1.81066 -1.27771 -5.15994
lowerback 10.8477 3.66782 -0.669203
upperback 5.66192 4.78114 -0.445797
thorax -0.182909 2.3814 -0.600025
lowerneck -18.2511 -8.14328 -8.69275
upperneck 15.8904 -12.1114 15.4887
head 9.59448 -4.66866 5.0529
rclavicle 9.52179e-014 0
rhumerus -49.2083 29.6255 -93.1822
rradius 89.3388
rwrist 33.9909
rhand -49.3738 -19.3144
rfingers 7.12502
rthumb -21.988 -48.0846
lclavicle 9.52179e-014 0
lhumerus -54.3698 -11.1493 83.1866
lradius 68.1036
lwrist -23.6964
lhand -48.0396 4.27443
lfingers 7.12502
lthumb -20.7064 33.1898
rfemur 20.2028 -7.11252 12.7631
rtibia 64.3597
rfoot -1.24563 -5.5724
rtoes -10.7131
lfemur -23.2992 15.9385 -16.3585
ltibia 44.4134
lfoot -19.6002 -17.0059
ltoes 0.978532
130
root 4.271 16.3337 4.02027 -2.00356 -0.70675 -4.95575
lowerback 11.1301 3.26977 -1.07165
upperback 5.70379 4.21451 -0.325822
thorax -0.332524 2.08871 -0.207781
lowerneck -18.4558 -7.96381 -8.57127
upperneck 15.5058 -11.7121 14.9942
head 9.39753 -4.52979 4.91117
rclavicle -1.80894e-014 0
rhumerus -51.4796 29.6319 -93.4691
rradius 86.4016
rwrist 32.6741
rhand -48.3316 -17.945
rfingers 7.12502
rthumb -20.987 -46.8295
lclavicle -1.80894e-014 0
lhumerus -51.5827 -10.886 85.1062
lradius 68.4098
lwrist -23.9128
lhand -48.4383 4.69742
lfingers 7.12502
lthumb -21.0895 33.5705
rfemur 17.5392 -7.91756 11.9099
rtibia 69.0825
rfoot -2.48989 -4.72397
rtoes -10.8857
lfemur -21.9964 15.2457 -16.5337
ltibia 46.0103
lfoot -22.8151 -15.5784
ltoes -0.692305
131
root 4.27698 16.2449 4.51305 -2.07089 0.0364552 -4.83986
lowerback 11.2753 2.83483 -1.47229
upperback 5.71661 3.60175 -0.150904
thorax -0.429804 1.77312 0.257913
lowerneck -18.5832 -7.87184 -9.00627
upperneck 15.1962 -11.4218 15.038
head 9.30445 -4.42222 5.03868
rclavicle 1.17283e-014 8.74653e-015
rhumerus -53.4392 29.219 -93.6288
rradius 82.5679
rwrist 33.3516
rhand -47.8651 -17.5982
rfingers 7.12502
rthumb -20.5388 -46.5317
lclavicle 1.17283e-014 8.74653e-015
lhumerus -48.6275 -11.7248 87.2042
lradius 68.5373
lwrist -23.3112
lhand -48.9274 4.60807
lfingers 7.12502
lthumb -21.5593 33.4281
rfemur 14.7135 -8.93809 11.2928
rtibia 73.5035
rfoot -3.68312 -3.98328
rtoes -10.9438
lfemur -20.5815 14.5815 -16.4992
ltibia 47.4295
lfoot -25.6532 -14.2864
ltoes -0.280271
132
root 4.284 16.1439 4.98155 -2.08824 0.695952 -4.87139
lowerback 11.5077 2.35409 -1.73498
upperback 5.66895 2.93975 0.0916761
thorax -0.619764 1.436 0.721395
lowerneck -18.643 -7.66149 -9.34899
upperneck 14.9311 -10.9827 14.9977
head 9.18135 -4.24845 5.1475
rclavicle 7.15625e-015 -2.38542e-015
rhumerus -55.304 28.7813 -93.798
rradius 78.683
rwrist 32.8713
rhand -47.6586 -17.2689
rfingers 7.12502
rthumb -20.3404 -46.2237
lclavicle 7.15625e-015 -2.38542e-015
lhumerus -45.4426 -12.5427 89.1892
lradius 68.6355
lwrist -22.9281
lhand -49.0396 4.83174
lfingers 7.12502
lthumb -21.667 33.6393
rfemur 11.4776 -9.71768 10.9971
rtibia 77.8555
rfoot -5.11074 -3.37292
rtoes -10.6916
lfemur -19.1244 13.5142 -16.2496
ltibia 48.6123
lfoot -28.6566 -12.9552
ltoes -1.50129
133
root 4.27788 16.0696 5.44454 -1.92395 1.73665 -4.91869
lowerback 11.4353 1.81745 -2.18523
upperback 5.77256 2.19581 0.413718
thorax -0.480502 1.05093 1.40101
lowerneck -18.9636 -7.52242 -9.71182
upperneck 14.6135 -10.6248 15.0166
head 9.1031 -4.09648 5.26146
rclavicle 1.55052e-014 -2.38542e-015
rhumerus -56.4848 28.2353 -93.464
rradius 74.5731
rwrist 32.3896
rhand -47.8038 -16.8022
rfingers 7.12502
rthumb -20.4799 -45.7421
lclavicle 1.55052e-014 -2.38542e-015
lhumerus -41.5622 -13.7487 90.8369
lradius 68.5134
lwrist -22.96
lhand -49.3909 4.48764
lfingers 7.12502
lthumb -22.0044 33.2559
rfemur 7.97953 -10.9589 10.8561
rtibia 81.7876
rfoot -6.37975 -2.68034
rtoes -9.9321
lfemur -17.8796 12.1076 -15.8891
ltibia 49.4776
lfoot -30.8036 -12.5722
ltoes -1.55281
134
root 4.2739 16.0085 5.90315 -1.71795 2.83937 -4.9294
lowerback 11.3098 1.29733 -2.44537
upperback 5.78407 1.49155 0.610373
thorax -0.38175 0.691137 1.83726
lowerneck -19.1473 -7.44543 -9.92589
upperneck 14.4363 -10.4181 15.0104
head 9.05809 -4.01009 5.32222
rclavicle 1.39149e-015 -9.54166e-015
rhumerus -57.6585 26.9616 -92.94
rradius 70.5946
rwrist 32.7314
rhand -47.8031 -16.1968
rfingers 7.12502
rthumb -20.4792 -45.1368
lclavicle 1.39149e-015 -9.54166e-015
lhumerus -37.8421 -15.3204 92.1298
lradius 68.2214
lwrist -24.0218
lhand -49.9267 3.80042
lfingers 7.12502
lthumb -22.5188 32.5073
rfemur 4.34428 -12.214 10.8175
rtibia 85.3283
rfoot -7.68173 -2.12072
rtoes -8.70375
lfemur -16.5151 10.9371 -15.6509
ltibia 49.8885
lfoot -32.7248 -12.0056
ltoes -2.20257
135
root 4.28006 15.9615 6.3662 -1.76244 3.57015 -5.1324
lowerback 12.9272 0.432048 -4.5697
upperback 4.63952 0.0732172 1.73279
thorax -2.36892 0.00173779 4.38728
lowerneck -18.4932 -6.29698 -9.60423
upperneck 15.3992 -8.75891 13.5542
head 8.93362 -3.36177 5.03998
rclavicle 6.4605e-015 0
rhumerus -61.1912 28.5062 -93.2145
rradius 67.5066
rwrist 33.1018
rhand -47.3522 -15.5676
rfingers 7.12502
rthumb -20.0458 -44.5536
lclavicle 6.4605e-015 0
lhumerus -36.6048 -13.6733 93.7586
lradius 68.4714
lwrist -27.0324
lhand -50.5846 3.99761
lfingers 7.12502
lthumb -23.1501 32.6266
rfemur 0.893021 -13.0669 11.0953
rtibia 88.191
rfoot -8.9711 -1.71956
rtoes -7.99873
lfemur -14.5717 10.0474 -15.1392
ltibia 49.8222
lfoot -34.2934 -11.5376
ltoes -3.38638
136
root 4.27929 15.9217 6.81049 -2.10262 4.68502 -5.20364
lowerback 11.6103 0.41365 -2.30574
upperback 6.04193 0.341763 0.960122
thorax -0.217218 0.111209 2.25427
lowerneck -19.3316 -7.2979 -10.3184
upperneck 14.2451 -10.0696 15.0522
head 9.00053 -3.86309 5.45291
rclavicle -1.11319e-014 -9.54166e-015
rhumerus -59.781 23.9472 -91.0512
rradius 64.4447
rwrist 34.5357
rhand -46.1608 -13.9098
rfingers 7.12502
rthumb -18.9003 -43.0116
lclavicle -1.11319e-014 -9.54166e-015
lhumerus -31.2525 -18.7853 94.1598
lradius 68.5995
lwrist -27.6395
lhand -50.9428 4.13673
lfingers 7.12502
lthumb -23.4937 32.7221
rfemur -2.11131 -14.4055 11.2711
rtibia 90.4626
rfoot -10.5048 -1.5406
rtoes -8.53204
lfemur -12.1636 8.85125 -14.6918
ltibia 49.2102
lfoot -35.5363 -11.5144
ltoes -3.99997
137
root 4.27407 15.906 7.2613 -2.41071 5.80357 -5.29007
lowerback 11.9855 -0.123205 -2.40048
upperback 6.11968 -0.378269 1.20668
thorax -0.293687 -0.25342 2.65035
lowerneck -19.1909 -7.24915 -11.0396
upperneck 14.088 -9.90104 15.5777
head 8.97056 -3.78552 5.78907
rclavicle 5.1684e-015 7.15625e-015
rhumerus -60.8986 22.7704 -90.0008
rradius 62.1943
rwrist 35.7076
rhand -45.0845 -12.6552
rfingers 7.12502
rthumb -17.8649 -41.8546
lclavicle 5.1684e-015 7.15625e-015
lhumerus -28.7907 -20.3652 95.1666
lradius 69.5217
lwrist -27.9656
lhand -51.3423 4.56206
lfingers 7.12502
lthumb -23.8769 33.0979
rfemur -5.12756 -15.6808 11.6004
rtibia 92.0861
rfoot -11.8976 -1.39518
rtoes -6.79045
lfemur -9.50839 7.50889 -14.2715
ltibia 48.0144
lfoot -36.505 -11.3495
ltoes -4.73599
138
root 4.25559 15.9021 7.70722 -2.76595 6.86621 -5.38143
lowerback 15.2729 -1.62923 -7.25306
upperback 4.31578 -3.0798 3.33232
thorax -3.35777 -1.53656 8.23046
lowerneck -18.6422 -4.87074 -10.3838
upperneck 16.2718 -6.49152 12.9068
head 8.95626 -2.39463 5.29729
rclavicle -1.14301e-014 2.78299e-015
rhumerus -65.2305 28.9352 -90.7893
rradius 60.853
rwrist 35.6769
rhand -44.2815 -11.8325
rfingers 7.12502
rthumb -17.0921 -41.1007
lclavicle -1.14301e-014 2.78299e-015
lhumerus -29.9563 -15.1447 97.0707
lradius 71.512
lwrist -28.2594
lhand -52.136 5.38193
lfingers 7.12502
lthumb -24.6378 33.8161
rfemur -8.10902 -16.8085 12.3094
rtibia 93.0927
rfoot -13.2765 -1.8455
rtoes -8.46933
lfemur -6.56306 6.41883 -13.7514
ltibia 46.2798
lfoot -37.26 -11.1533
ltoes -6.1406
139
root 4.21499 15.9123 8.13969 -3.60182 8.44392 -5.55032
lowerback 17.1869 -2.38158 -8.55145
upperback 4.09069 -4.38105 4.07922
thorax -4.19621 -2.12715 10.1903
lowerneck -18.7684 -4.25794 -10.5634
upperneck 16.8792 -5.47456 12.1891
head 9.03021 -1.99347 5.23185
rclavicle -1.68967e-014 4.63168e-014
rhumerus -66.9136 30.2454 -90.5286
rradius 59.8105
rwrist 35.1114
rhand -43.7864 -11.0624
rfingers 7.12502
rthumb -16.6155 -40.3711
lclavicle -1.68967e-014 4.63168e-014
lhumerus -28.855 -15.3882 98.2549
lradius 73.1587
lwrist -27.0307
lhand -52.6092 5.56249
lfingers 7.12502
lthumb -25.0914 33.934
rfemur -10.4679 -18.1527 13.3696
rtibia 93.4865
rfoot -14.6681 -2.47103
rtoes -6.86768
lfemur -3.07457 5.08286 -12.7796
ltibia 44.0458
lfoot -37.573 -11.7787
ltoes -7.51295
